# .PCD v0.7 - Point Cloud Data file format
VERSION 0.7
FIELDS x y z
SIZE 4 4 4
TYPE F F F
COUNT 1 1 1
WIDTH 39
HEIGHT 1
VIEWPOINT 0 0 0 1 0 0 0
POINTS 39
DATA ascii
-314.13 121.24 30.204
-314.13 121.24 30.204
-313.75 121.24 30.447001
-313.85001 121.24 30.444
-313.94 121.16 30.445
-313.94 121.16 29.745001
-313.97 121.23 29.950001
-313.92001 121.23 30.441999
-313.75 121.25 30.250999
-313.75 121.25 30.351
-313.76001 121.24 30.540001
-313.76001 121.25 30.177
-314.04999 121.23 29.849001
-313.85001 121.24 30.174999
-313.85001 121.25 30.247999
-313.85001 121.24 30.347
-313.85001 121.24 30.537001
-313.92001 121.23 30.16
-313.92001 121.24 30.250999
-313.92999 121.24 30.349001
-313.92999 121.23 30.542999
-313.94 121.17 29.854
-313.92999 121.17 29.950001
-313.94 121.17 30.247999
-313.94 121.17 30.349001
-313.95001 121.23 30.055
-313.95001 121.16 30.517
-314.04999 121.24 30.136999
-314.04999 121.24 29.768999
-314.04999 121.23 29.945
-314.04999 121.24 30.046
-313.94 121.17 30.055
-313.98999 121.22 29.82
-313.92999 121.16 30.153
-314.14001 121.23 29.844999
-314.14001 121.24 29.945999
-314.14001 121.24 29.768
-314.14999 121.24 30.047001
-314.14001 121.24 30.135
